<svg xmlns="http://www.w3.org/2000/svg" width="52" height="18" viewBox="0 0 52 18">
  <g fill="#1A3B8B" fill-rule="evenodd">
    <path d="M51.2133761 4.20840216L48.5534671 4.20840216 47.0142303 10.6142295 46.7981971 11.4931996C46.6496743 11.5331527 46.5011514 11.5731059 46.3526286 11.5997414 46.0825871 11.6530123 45.7990435 11.6796478 45.5019978 11.6796478 45.1644459 11.6796478 44.8944043 11.6263768 44.6918732 11.5331527 44.5028441 11.4399287 44.3543213 11.3067514 44.2733088 11.1203032 44.1922964 10.9471727 44.1652922 10.734089 44.1787943 10.4943699 44.1922964 10.2546508 44.2463047 9.98829626 44.313815 9.72194169L45.1239396 6.39250961 45.6505206 4.1817667 42.9366032 4.1817667 41.7079143 9.29577439C41.5593914 9.90838989 41.478379 10.4943699 41.4513748 11.0537145 41.4243707 11.6130591 41.5188852 12.0924973 41.7079143 12.5319824 41.8969433 12.9581497 42.2344953 13.2910929 42.6935659 13.5441297 43.1526365 13.7971666 43.8142382 13.9170261 44.651367 13.9170261 45.2319562 13.9170261 45.7450351 13.8637552 46.1771016 13.7705311 46.1906037 13.7705311 46.2176078 13.7572134 46.2311099 13.7572134L46.2311099 13.7572134C46.1095912 14.2899225 45.8665538 14.7160898 45.4884957 15.049033 45.0969355 15.3819762 44.5298483 15.5551067 43.773732 15.5551067 43.4496821 15.5551067 43.1526365 15.541789 42.8825949 15.5018358L42.356014 17.6726255C42.7070679 17.7125787 43.0986282 17.7392142 43.5306946 17.7392142 44.3408192 17.7392142 45.0429272 17.6459901 45.6505206 17.4728596 46.2581141 17.2864114 46.771193 17.0200568 47.2167615 16.6471604 47.6488279 16.274264 48.013384 15.8081435 48.3104297 15.2621167 48.6074754 14.7027721 48.8370107 14.0502034 49.0125377 13.2777752L50.8488201 5.66003455 50.8488201 5.66003455 51.2133761 4.20840216 51.2133761 4.20840216zM40.074163 9.68198851C39.9121381 10.3478749 39.8581298 11.0270791 39.9256402 11.6929655 39.9931506 12.3721696 40.2631921 13.3976347 40.5197315 13.9170261L37.954337 13.9170261C37.6437893 13.3976347 37.6572913 13.1445979 37.5897809 12.9847851 37.252229 13.2511397 36.887673 13.4775411 36.4826107 13.6506716 36.0775484 13.823802 35.6319799 13.9170261 35.118901 13.9170261 34.5248096 13.9170261 34.0117307 13.8104843 33.5931663 13.6107184 33.1746019 13.4109524 32.8235479 13.1312802 32.5535064 12.7850192 32.2834649 12.4387583 32.0944358 12.0392264 31.9729171 11.5731059 31.8513984 11.1069854 31.7973901 10.6142295 31.7973901 10.0815204 31.7973901 9.26913893 31.945913 8.51002841 32.2294566 7.79087108 32.5265023 7.07171375 32.9315646 6.44578052 33.4446435 5.91307139 33.9577224 5.38036225 35.2134155 4.19508443 37.2657311 4.19508443L41.3838644 4.19508443 40.074163 9.68198851 40.074163 9.68198851zM38.1973744 6.41914506C36.9551834 6.41914506 36.7256481 6.41914506 36.2125691 6.6721819 35.8480131 6.8586301 35.5509674 7.13830239 35.2944279 7.45792788 35.0378885 7.77755336 34.8218553 8.15044975 34.6733324 8.57661706 34.5248096 9.00278436 34.4437971 9.4422694 34.4437971 9.89507216 34.4437971 10.4544168 34.5383117 10.9072195 34.7273407 11.2401627 34.9163698 11.5731059 35.2674238 11.7329187 35.7805027 11.7329187 36.0505442 11.7329187 36.3070837 11.6796478 36.5231169 11.5731059 36.7391501 11.4665641 36.9821875 11.2934336 37.2252249 11.0403968 37.252229 10.7474068 37.2927353 10.441099 37.3467436 10.1214735 37.4007519 9.80184806 37.4682623 9.49554031 37.5222706 9.22918575L38.1973744 6.41914506 38.1973744 6.41914506zM31.068278 8.05722565C31.068278 8.92287799 30.9197552 9.70862397 30.6362116 10.4277813 30.352668 11.1469386 29.9476057 11.7595541 29.4345267 12.2789455 28.9214478 12.7983369 28.3138544 13.1978688 27.5982443 13.4908588 26.8826343 13.7838488 26.1130159 13.9303439 25.2758872 13.9303439 24.8708249 13.9303439 24.4657626 13.8903907 24.0471982 13.823802L23.2370736 17.0333746 20.5771646 17.0333746 23.6691401 4.22171989 27.2201862 4.22171989C27.89529 4.22171989 28.4758793 4.32826171 28.948452 4.52802764 29.4345267 4.72779356 29.826087 5.00746586 30.1501368 5.3537268 30.4606846 5.69998773 30.6902199 6.11283731 30.8387427 6.5789578 31.0007676 7.03176057 31.068278 7.52451652 31.068278 8.05722565L31.068278 8.05722565zM24.5467751 11.6929655C24.7493062 11.7462364 25.0058457 11.7595541 25.3028913 11.7595541 25.775464 11.7595541 26.1940284 11.6796478 26.5855886 11.5065173 26.9636468 11.3333868 27.3011987 11.0936677 27.5712402 10.78736 27.8412817 10.4810522 28.0438129 10.1081558 28.2058378 9.68198851 28.3543606 9.2558212 28.4353731 8.77638298 28.4353731 8.25699158 28.4353731 7.7509179 28.3273565 7.31143286 28.0978212 6.96517193 27.8682859 6.60559326 27.4767257 6.41914506 26.9096384 6.41914506L25.8564765 6.41914506 24.5467751 11.6929655 24.5467751 11.6929655zM18.9569154 11.6929655C18.6193635 11.6929655 18.349322 11.6396946 18.1467908 11.5464705 17.9577617 11.4532464 17.8092389 11.3200691 17.7282264 11.1336209 17.647214 10.9604904 17.6202098 10.7474068 17.6337119 10.5076877 17.647214 10.2679686 17.7012223 10.001614 17.7687327 9.73525942L18.5788573 6.40582734 21.6033224 6.40582734 22.1569075 4.19508443 19.1189403 4.19508443 19.8210483 1.39836148 16.9856122 1.83784651 15.1898361 9.32240984C15.0413132 9.93502535 14.9603008 10.5210054 14.9332966 11.08035 14.9062924 11.6396946 15.000807 12.1191328 15.1898361 12.5586178 15.3788651 12.9847851 15.716417 13.3177283 16.1754876 13.5707652 16.6345582 13.823802 17.29616 13.9436616 18.1332887 13.9436616 18.713878 13.9436616 19.2269569 13.8903907 19.6590234 13.7971666 19.6995296 13.7838488 19.76704 13.7705311 19.8075462 13.7572134L20.3611313 11.4798818C20.1721023 11.5464705 19.9830732 11.5864237 19.8075462 11.6130591 19.5375047 11.66633 19.2539611 11.6929655 18.9569154 11.6929655L18.9569154 11.6929655z"/>
    <polygon points="12.192 4.208 9.843 13.93 12.503 13.93 14.839 4.208"/>
    <polygon points="15.122 3.09 15.527 1.398 12.867 1.398 12.462 3.09"/>
    <path d="M6.30546972,4.22171989 C6.87255693,4.22171989 7.37213376,4.32826171 7.79069813,4.52802764 C8.20926251,4.72779356 8.54681442,4.99414813 8.83035802,5.34040907 C9.10039955,5.68667 9.3029307,6.08620186 9.43795147,6.53900462 C9.57297223,6.99180738 9.64048261,7.48456333 9.64048261,8.01727247 C9.64048261,8.82965389 9.49195977,9.58876441 9.18141201,10.3212395 C8.87086425,11.0403968 8.46580196,11.6796478 7.93922098,12.2123569 C7.41263999,12.745066 6.79154447,13.1712333 6.07593442,13.4775411 C5.36032437,13.7838488 4.59070601,13.9436616 3.75357726,13.9436616 C3.64556065,13.9436616 3.45653158,13.9436616 3.18649005,13.9303439 C2.91644852,13.9303439 2.60590076,13.9037084 2.26834885,13.8504375 C1.91729486,13.7971666 1.5527388,13.7305779 1.17468065,13.6373538 C0.783120436,13.5441297 0.418564371,13.4109524 0.0810124589,13.2511397 L3.17298798,0.439485035 L5.94091366,0.0133177283 L4.84724546,4.5546631 C5.09028284,4.44812127 5.30631606,4.3682149 5.54935344,4.31494398 C5.77888874,4.24835534 6.03542819,4.22171989 6.30546972,4.22171989 L6.30546972,4.22171989 Z M3.98311256,11.7595541 C4.40167694,11.7595541 4.79323715,11.66633 5.15779322,11.4532464 C5.52234928,11.2534805 5.84639912,10.9871259 6.11644065,10.6541827 C6.38648218,10.3212395 6.6025154,9.93502535 6.75103825,9.52217577 C6.89956109,9.09600846 6.98057355,8.65652343 6.98057355,8.20372066 C6.98057355,7.64437607 6.88605901,7.20489104 6.69702994,6.88526556 C6.50800087,6.56564008 6.11644065,6.41914506 5.60336174,6.41914506 C5.44133683,6.41914506 5.26580983,6.43246279 4.9957683,6.49905143 C4.72572677,6.55232235 4.49619147,6.68549963 4.28015825,6.87194783 L3.11897967,11.7062832 C3.47003366,11.7595541 3.57805027,11.7728719 3.67256481,11.7728719 C3.74007519,11.7595541 3.8480918,11.7595541 3.98311256,11.7595541 L3.98311256,11.7595541 Z"/>
  </g>
</svg>
