<svg xmlns="http://www.w3.org/2000/svg" width="20" height="20" viewBox="0 0 20 20">
  <g fill="none" fill-rule="evenodd">
    <circle cx="10" cy="10" r="10" fill="#F5F5F7"/>
    <path fill="#434D5A" fill-rule="nonzero" d="M10.9788242,9.99524148 L13.3763494,12.3887321 C13.6386865,12.6569753 13.636114,13.0859697 13.3705788,13.3510581 C13.1050436,13.6161464 12.675326,13.6187146 12.4066307,13.3568189 L10.0095021,10.964912 L7.61039047,13.3584027 C7.43858394,13.5381037 7.18274819,13.6107901 6.94190762,13.5483277 C6.70106705,13.4858653 6.51301901,13.2980569 6.45054984,13.0575961 C6.38808067,12.8171353 6.46099424,12.5617598 6.64106844,12.3903159 L9.03700721,9.99524148 L6.63948199,7.60175082 C6.4637852,7.42910512 6.39437013,7.17563144 6.45764527,6.93776212 C6.52092041,6.6998928 6.7071583,6.51419616 6.94550599,6.45131923 C7.18385369,6.3884423 7.43766932,6.45805133 7.61039047,6.63366403 L10.0095021,9.02755063 L12.4070274,6.63247619 C12.6763469,6.37473293 13.1026026,6.37905257 13.3666257,6.64220069 C13.6306488,6.9053488 13.6356728,7.33087954 13.3779358,7.60016704 L10.9788242,9.99524148 Z"/>
  </g>
</svg>
