<svg xmlns="http://www.w3.org/2000/svg" xmlns:xlink="http://www.w3.org/1999/xlink" width="37" height="9" viewBox="0 0 37 9">
  <defs>
    <path id="back-button-a" d="M14.668457,12.5 C15.5314128,12.5 16.2010091,12.3039551 16.6772461,11.9118652 C17.1534831,11.5197754 17.3916016,10.953125 17.3916016,10.2119141 C17.3916016,9.78580729 17.280599,9.41072591 17.0585938,9.08666992 C16.8365885,8.76261393 16.5089518,8.54329427 16.0756836,8.42871094 C16.440918,8.27832031 16.72111,8.05989583 16.9162598,7.7734375 C17.1114095,7.48697917 17.2089844,7.16113281 17.2089844,6.79589844 C17.2089844,6.08333333 16.9726563,5.55249023 16.5,5.20336914 C16.0273438,4.85424805 15.3505859,4.6796875 14.4697266,4.6796875 L14.4697266,4.6796875 L11.7841797,4.6796875 L11.7841797,12.5 L14.668457,12.5 Z M14.4804688,7.96679688 L13.175293,7.96679688 L13.175293,5.80224609 L14.4697266,5.80224609 C14.9352214,5.80224609 15.277181,5.88728841 15.4956055,6.05737305 C15.7140299,6.22745768 15.8232422,6.50227865 15.8232422,6.88183594 C15.8232422,7.22558594 15.7059733,7.49235026 15.4714355,7.68212891 C15.2368978,7.87190755 14.9065755,7.96679688 14.4804688,7.96679688 L14.4804688,7.96679688 Z M14.668457,11.3828125 L13.175293,11.3828125 L13.175293,8.98730469 L14.7275391,8.98730469 C15.5797526,8.98730469 16.0058594,9.39550781 16.0058594,10.2119141 C16.0058594,10.5664062 15.8903809,10.850179 15.6594238,11.0632324 C15.4284668,11.2762858 15.0981445,11.3828125 14.668457,11.3828125 L14.668457,11.3828125 Z M20.4047852,12.6074219 C20.7270508,12.6074219 21.0152995,12.5483398 21.2695313,12.4301758 C21.523763,12.3120117 21.7421875,12.1544596 21.9248047,11.9575195 C21.9677734,12.1938477 22.0179036,12.3746745 22.0751953,12.5 L22.0751953,12.5 L23.4394531,12.5 L23.4394531,12.4086914 C23.2926432,12.097168 23.2192383,11.6764323 23.2192383,11.1464844 L23.2192383,11.1464844 L23.2192383,8.58447266 C23.2192383,8.15120443 23.1234538,7.78417969 22.9318848,7.48339844 C22.7403158,7.18261719 22.4744466,6.95703125 22.1342773,6.80664062 C21.7941081,6.65625 21.4020182,6.58105469 20.9580078,6.58105469 C20.4853516,6.58105469 20.0655111,6.66430664 19.6984863,6.83081055 C19.3314616,6.99731445 19.048584,7.2175293 18.8498535,7.49145508 C18.651123,7.76538086 18.5517578,8.05810547 18.5517578,8.36962891 L18.5517578,8.36962891 L19.8891602,8.36962891 C19.8891602,8.22281901 19.9303385,8.09033203 20.0126953,7.97216797 C20.0950521,7.85400391 20.2114258,7.76090495 20.3618164,7.69287109 C20.512207,7.62483724 20.6858724,7.59082031 20.8828125,7.59082031 C21.2122396,7.59082031 21.4611003,7.67765299 21.6293945,7.85131836 C21.7976888,8.02498372 21.8818359,8.26578776 21.8818359,8.57373047 L21.8818359,8.57373047 L21.8818359,8.94970703 L21.0761719,8.94970703 C20.2311198,8.94970703 19.5785319,9.11442057 19.1184082,9.44384766 C18.6582845,9.77327474 18.4282227,10.2477214 18.4282227,10.8671875 C18.4282227,11.1966146 18.5123698,11.4938151 18.6806641,11.7587891 C18.8489583,12.023763 19.0834961,12.2314453 19.3842773,12.3818359 C19.6850586,12.5322266 20.0252279,12.6074219 20.4047852,12.6074219 Z M20.6625977,11.5385742 C20.3797201,11.5385742 20.1595052,11.4642741 20.0019531,11.3156738 C19.844401,11.1670736 19.765625,10.9746094 19.765625,10.7382812 C19.765625,10.4339193 19.8855794,10.1975911 20.1254883,10.0292969 C20.3653971,9.8610026 20.718099,9.77685547 21.1835938,9.77685547 L21.1835938,9.77685547 L21.8818359,9.77685547 L21.8818359,10.8618164 C21.7815755,11.0480143 21.6231283,11.2073568 21.4064941,11.3398438 C21.18986,11.4723307 20.9418945,11.5385742 20.6625977,11.5385742 Z M26.9736328,12.6074219 C27.3997396,12.6074219 27.7918294,12.5161133 28.1499023,12.3334961 C28.5079753,12.1508789 28.7944336,11.9038086 29.0092773,11.5922852 C29.2241211,11.2807617 29.3369141,10.9388021 29.3476563,10.5664062 L29.3476563,10.5664062 L28.0854492,10.5664062 C28.074707,10.7526042 28.0192057,10.9191081 27.9189453,11.065918 C27.8186849,11.2127279 27.6844076,11.3273112 27.5161133,11.409668 C27.347819,11.4920247 27.1616211,11.5332031 26.9575195,11.5332031 C26.0909831,11.5332031 25.6577148,10.9173177 25.6577148,9.68554688 L25.6577148,9.68554688 L25.6577148,9.50292969 C25.6577148,8.96582031 25.7543945,8.52360026 25.9477539,8.17626953 C26.1411133,7.8289388 26.4759115,7.65527344 26.9521484,7.65527344 C27.1777344,7.65527344 27.3737793,7.70540365 27.5402832,7.80566406 C27.7067871,7.90592448 27.8365885,8.04109701 27.9296875,8.21118164 C28.0227865,8.38126628 28.074707,8.57014974 28.0854492,8.77783203 L28.0854492,8.77783203 L29.3476563,8.77783203 C29.3369141,8.34814453 29.2312826,7.96679688 29.0307617,7.63378906 C28.8302409,7.30078125 28.5518392,7.04207357 28.1955566,6.85766602 C27.8392741,6.67325846 27.4301758,6.58105469 26.9682617,6.58105469 C26.3953451,6.58105469 25.9101563,6.70996094 25.5126953,6.96777344 C25.1152344,7.22558594 24.8171387,7.57560221 24.6184082,8.01782227 C24.4196777,8.46004232 24.3203125,8.95507812 24.3203125,9.50292969 L24.3203125,9.50292969 L24.3203125,9.68554688 C24.3203125,10.2333984 24.4187826,10.7284342 24.6157227,11.1706543 C24.8126628,11.6128743 25.1107585,11.9628906 25.5100098,12.2207031 C25.9092611,12.4785156 26.3971354,12.6074219 26.9736328,12.6074219 Z M31.6572266,12.5 L31.6572266,10.6147461 L32.2426758,10.0185547 L33.9345703,12.5 L35.4814453,12.5 L33.1020508,9.10546875 L35.2558594,6.68847656 L33.6445313,6.68847656 L32.0546875,8.48779297 L31.6572266,8.98193359 L31.6572266,4.25 L30.3251953,4.25 L30.3251953,12.5 L31.6572266,12.5 Z"/>
  </defs>
  <g fill="none" fill-rule="evenodd" transform="translate(1 -4)">
    <g fill-rule="nonzero">
      <use fill="#000" xlink:href="#back-button-a"/>
      <use fill="#9BA3AE" xlink:href="#back-button-a"/>
    </g>
    <polyline stroke="#9BA3AE" stroke-linecap="round" stroke-linejoin="round" stroke-width="2" points=".088 5.732 3.313 8.778 .088 11.824" transform="rotate(180 1.7 8.778)"/>
  </g>
</svg>
