<svg xmlns="http://www.w3.org/2000/svg" width="18" height="18" viewBox="0 0 18 18">
  <g fill="none" fill-rule="evenodd" stroke="#4F6EF7">
    <circle cx="9" cy="9" r="8.125" stroke-width="1.75"/>
    <g fill="#4F6EF7" transform="translate(8.235 4.5)">
      <path d="M0.756,1.962 C0.338472729,1.962 2.70522055e-12,1.62352727 2.70516942e-12,1.206 C2.70511829e-12,0.788472729 0.338472729,0.45 0.756,0.45 C1.17352727,0.45 1.512,0.788472729 1.512,1.206 C1.512,1.62352727 1.17352727,1.962 0.756,1.962 Z" transform="rotate(180 .756 1.206)"/>
      <path stroke-width=".5" d="M0.756,9 C0.338472729,9 2.70510953e-12,8.66152727 2.70516942e-12,8.244 L2.70516942e-12,4.356 C2.70522931e-12,3.93847273 0.338472729,3.6 0.756,3.6 C1.17352727,3.6 1.512,3.93847273 1.512,4.356 L1.512,8.244 C1.512,8.66152727 1.17352727,9 0.756,9 Z" transform="rotate(180 .756 6.3)"/>
    </g>
  </g>
</svg>
