<svg xmlns="http://www.w3.org/2000/svg" width="14" height="14" viewBox="0 0 14 14">
  <path fill="#9BA3AE" d="M252.11246,22.8248482 C252.915416,21.7784311 253.346482,20.4941767 253.337456,19.1752761 C253.346362,17.5436069 252.705546,15.975459 251.556427,14.8169039 C250.407309,13.6583487 248.84435,13.0046244 247.212478,13 C243.797413,13.0023899 241.02362,15.7586808 241,19.1732763 C241.022526,22.5886537 243.796639,25.3461545 247.212478,25.3485524 C248.54035,25.3728881 249.836777,24.9434403 250.887464,24.1311951 L253.512455,26.7393893 C253.672698,26.905905 253.893844,27 254.124953,27 C254.356062,27 254.577208,26.905905 254.737451,26.7393893 C254.905023,26.5812769 255,26.3610879 255,26.1307107 C255,25.9003335 254.905023,25.6801445 254.737451,25.522032 L252.11246,22.8248482 Z M247.212478,23.5202667 C246.042887,23.5385573 244.914278,23.0897932 244.076661,22.2733852 C243.239044,21.4569772 242.761564,20.3403197 242.749994,19.1707766 C242.749994,16.7064948 244.747916,14.7087997 247.212478,14.7087997 C249.67704,14.7087997 251.674962,16.7064948 251.674962,19.1707766 C251.663391,20.3403197 251.185912,21.4569772 250.348294,22.2733852 C249.510677,23.0897932 248.382068,23.5385573 247.212478,23.5202667 Z" transform="translate(-241 -13)"/>
</svg>
