<svg xmlns="http://www.w3.org/2000/svg" width="16" height="16" viewBox="0 0 16 16">
  <path fill="#4F6EF7" d="M230.277415,13.1700883 C231.413116,12.9438441 232.58581,12.9432995 233.721743,13.1684887 C233.875032,14.1297545 234.48089,14.9723411 235.367712,15.4575946 C236.253836,15.944528 237.325221,16.0213716 238.278257,15.6663496 C239.051386,16.4886206 239.63702,17.4539942 239.998316,18.5017377 C239.199015,19.1086403 238.734178,20.0283314 238.735424,21.0003985 C238.735424,22.0113803 239.228794,22.9127857 240,23.4990592 C239.636566,24.5459355 239.050206,25.5105446 238.277415,26.3328476 C237.324623,25.9780841 236.253613,26.054923 235.367712,26.5416026 C234.481631,27.0266976 233.876165,27.8685827 233.722585,28.8291089 C232.587,29.0558807 231.414306,29.05697 230.278257,28.8323082 C230.125689,27.8701587 229.519741,27.0265624 228.632288,26.5408028 C227.746033,26.054132 226.674653,25.9775832 225.721743,26.3328476 C224.948514,25.5103416 224.362875,24.5446869 224.001684,23.4966597 C224.800523,22.8901071 225.26531,21.9711049 225.264576,20.9995986 C225.265413,20.0272615 224.799932,19.1075222 224,18.5009379 C224.363434,17.4540616 224.949794,16.4894525 225.722585,15.6671494 C226.675377,16.021913 227.746387,15.945074 228.632288,15.4583945 C229.518369,14.9732995 230.123835,14.1314144 230.277415,13.1708881 L230.277415,13.1700883 Z M232,23.5263158 C233.394952,23.5263158 234.525784,22.3952457 234.525784,21 C234.525784,19.6047543 233.394952,18.4736842 232,18.4736842 C230.605048,18.4736842 229.474216,19.6047543 229.474216,21 C229.474216,22.3952457 230.605048,23.5263158 232,23.5263158 Z" transform="translate(-224 -13)"/>
</svg>
