<svg xmlns="http://www.w3.org/2000/svg" width="14" height="20" viewBox="0 0 14 20">
  <path fill="#1A3B8B" d="M148.465414,30.8860375 C149.047527,30.8860375 149.596651,30.7428074 150.112409,30.4557736 C150.627978,30.1689311 151.073423,29.7847533 151.4478,29.303814 C151.821988,28.8226835 152.117192,28.2784476 152.333599,27.6709151 C152.549629,27.0633826 152.658022,26.4304168 152.658022,25.7720175 C152.658022,24.9619742 152.524746,24.3290084 152.258761,23.8735024 C151.9924,23.417614 151.439128,23.2093663 150.724117,23.2093663 C150.490933,23.2093663 150.249831,23.2321225 149.875454,23.3164542 C149.501077,23.4011684 149.178163,23.5763335 148.878812,23.8461568 L147.251611,30.7908057 C147.732872,30.8762848 147.899513,30.8860375 148.016199,30.8860375 L148.465414,30.8860375 L148.465414,30.8860375 Z M151.709638,20.0506564 C152.508346,20.0506564 153.198474,20.1942689 153.781153,20.4811114 C154.363265,20.7681452 154.845658,21.1561475 155.228517,21.6455009 C155.611,22.1352367 155.893762,22.7087305 156.076992,23.3671298 C156.259845,24.0253378 156.351648,24.7342213 156.351648,25.4935891 C156.351648,26.6581697 156.139577,27.7594538 155.715245,28.7974414 C155.290914,29.8354289 154.712759,30.7384092 153.980783,31.5063822 C153.248429,32.2745465 152.383554,32.8820791 151.385215,33.3289797 C150.387065,33.7760716 149.305406,34 148.140992,34 C147.991316,34 147.72929,33.9956018 147.354913,33.9873789 C146.980536,33.9785824 146.551869,33.9407192 146.069477,33.8734068 C145.586896,33.805712 145.075285,33.7045521 144.534833,33.5695449 C143.993814,33.434729 143.482392,33.2492374 143,33.0126879 L147.3174,14.6075325 L151.185774,14 L149.65735,20.5229904 C149.989879,20.3711551 150.303556,20.2619637 150.63665,20.1772495 C150.969178,20.0929179 151.326778,20.0506564 151.709638,20.0506564 L151.709638,20.0506564 Z" transform="translate(-143 -14)"/>
</svg>
