<?xml version="1.0" encoding="UTF-8"?>
<svg width="10px" height="10px" viewBox="0 0 10 10" version="1.1" xmlns="http://www.w3.org/2000/svg" xmlns:xlink="http://www.w3.org/1999/xlink">
    <!-- Generator: Sketch 64 (93537) - https://sketch.com -->
    <title>Path</title>
    <desc>Created with Sketch.</desc>
    <g id="Main" stroke="none" stroke-width="1" fill="none" fill-rule="evenodd" opacity="0.5">
        <g id="Shop---Scope-Brand---Invoice-Input-Error" transform="translate(-1636.000000, -140.000000)" fill="#FFFFFF" fill-rule="nonzero">
            <g id="error-toast" transform="translate(1384.000000, 130.000000)">
                <path d="M261.695437,10.304563 C261.305896,9.91514003 260.674451,9.91514003 260.284911,10.304563 L257,13.5894736 L253.715089,10.304563 C253.464632,10.045245 253.093742,9.94124509 252.744971,10.0325357 C252.396201,10.1238263 252.123826,10.3962006 252.032536,10.7449711 C251.941245,11.0937417 252.045245,11.4646317 252.304563,11.7150894 L255.589474,15 L252.304563,18.2849106 C252.045245,18.5353683 251.941245,18.9062583 252.032536,19.2550289 C252.123826,19.6037994 252.396201,19.8761737 252.744971,19.9674643 C253.093742,20.0587549 253.464632,19.954755 253.715089,19.695437 L257,16.4105264 L260.284911,19.695437 C260.535368,19.954755 260.906258,20.0587549 261.255029,19.9674643 C261.603799,19.8761737 261.876174,19.6037994 261.967464,19.2550289 C262.058755,18.9062583 261.954755,18.5353683 261.695437,18.2849106 L258.410526,15 L261.695437,11.7150894 C262.08486,11.3255488 262.08486,10.6941035 261.695437,10.304563 Z" id="Path"></path>
            </g>
        </g>
    </g>
</svg>