<svg xmlns="http://www.w3.org/2000/svg" width="30" height="30" viewBox="0 0 30 30">
  <g fill="none" fill-rule="evenodd">
    <circle cx="15" cy="15" r="15" fill="#F5F7FA"/>
    <path fill="#434D5A" fill-rule="nonzero" stroke="#434D5A" stroke-width=".2" d="M20.5858798,13.900619 L15.9274081,13.9 L14.0551542,13.9011105 L8.95270823,14.0275135 C8.78475161,14.1214441 8.64102743,14.2644233 8.54147456,14.4452675 C8.35302869,14.7875914 8.35297895,15.2121395 8.54135472,15.5545852 C8.63421795,15.7234 8.7565914,15.8678171 9.44089966,16.0992956 L14.0718559,16.0988338 L15.9439684,16.0999443 L20.5853187,16.1 C20.8699901,16.0931371 21.1241516,15.9670217 21.3074507,15.7665423 C21.4885228,15.5684987 21.6002538,15.2977396 21.6,14.9995036 C21.5997449,14.7012712 21.4875547,14.4306883 21.3061471,14.2329275 C21.122509,14.0327349 20.8681362,13.907016 20.5858798,13.900619 Z"/>
  </g>
</svg>
