<svg xmlns="http://www.w3.org/2000/svg" width="30" height="30" viewBox="0 0 30 30">
  <g fill="none" fill-rule="evenodd">
    <circle cx="15" cy="15" r="15" fill="#F5F7FA"/>
    <path fill="#434D5A" fill-rule="nonzero" stroke="#434D5A" stroke-width=".2" d="M15.5547325,8.54147456 C15.2124086,8.35302869 14.7878605,8.35297895 14.4454148,8.54135472 C14.2766002,8.63421787 14.1321831,8.7565912 13.900705,9.44089795 L13.9009937,13.9034756 L8.95269419,14.0275214 C8.7847436,14.121452 8.64102466,14.2644284 8.54147456,14.4452675 C8.35302869,14.7875914 8.35297895,15.2121395 8.54135472,15.5545852 C8.63421836,15.7234007 8.75659248,15.8678184 9.4409087,16.0992987 L13.9,16.0980285 L13.9,20.5853199 C13.9068629,20.8699901 14.0329783,21.1241516 14.2334577,21.3074507 C14.4315013,21.4885228 14.7022604,21.6002538 15.0004964,21.6 C15.2987288,21.5997449 15.5693117,21.4875547 15.7670725,21.3061471 C15.9672651,21.122509 16.092984,20.8681362 16.099381,20.5858798 L16.0999865,16.0990218 L20.5852981,16.1 C20.8699901,16.0931371 21.1241516,15.9670217 21.3074507,15.7665423 C21.4885228,15.5684987 21.6002538,15.2977396 21.6,14.9995036 C21.5997449,14.7012712 21.4875547,14.4306883 21.3061471,14.2329275 C21.122509,14.0327349 20.8681362,13.907016 20.5858798,13.900619 L16.0955438,13.9000132 L15.9724838,8.95270342 C15.8785532,8.78474887 15.7355749,8.64102648 15.5547325,8.54147456 Z"/>
  </g>
</svg>
