<svg xmlns="http://www.w3.org/2000/svg" width="20" height="20" viewBox="0 0 20 20">
  <g fill="#FFF" stroke="#FFF" stroke-width=".25" transform="rotate(-45 14.828 8)">
    <path d="M6.36570188,6.00182382 C6.36570188,6.55410857 6.77271574,7.00182382 7.27479279,7.00182382 L12.7293382,7.00182382 C13.2314153,7.00182382 13.6384292,6.55410857 13.6384292,6.00182382 C13.6384292,5.44953907 13.2314153,5.00182382 12.7293382,5.00182382 L7.27479279,5.00182382 C6.77271574,5.00182382 6.36570188,5.44953907 6.36570188,6.00182382 Z"/>
    <path d="M7.25807927,10.0018238 L5.63454513,10.0018238 C3.70308553,10.0586645 2.04929363,8.48650361 1.8160654,6.37182382 C1.7214019,5.24845356 2.06142354,4.13324594 2.75233637,3.30102946 C3.4432492,2.46881298 4.42079661,1.99698587 5.44407465,2.00182382 L7.25807927,2.00182382 C7.75900282,2.00182382 8.16508159,1.55410857 8.16508159,1.00182382 C8.16508159,0.449539066 7.75900282,0.00182381562 7.25807927,0.00182381562 L5.63454513,0.00182381562 C2.85483576,-0.039131017 0.472066782,2.18279991 0.0474108853,5.21182382 C-0.159120997,6.92619609 0.315340628,8.65544772 1.34912892,9.95614438 C2.38291722,11.256841 3.87547901,12.0024682 5.44407465,12.0018242 L7.25807927,12.0018242 C7.75900282,12.0018242 8.16508159,11.5541086 8.16508159,11.0018238 C8.16508159,10.4495391 7.75900282,10.0018238 7.25807927,10.0018238 L7.25807927,10.0018238 Z M19.9561117,5.24182382 C19.5364546,2.17245219 17.1109752,-0.0731659014 14.2964172,0.00182381562 L12.9268437,0.00182381562 C12.1921719,0.00182381562 11.7930908,0.451823816 11.7930908,1.00182382 C11.7930908,1.55410857 12.1991696,2.00182382 12.7000932,2.00182382 L14.3236273,2.00182382 C16.2550869,1.94498311 17.9088788,3.51714402 18.142107,5.63182382 C18.2367705,6.75519407 17.8967489,7.87040169 17.2058361,8.70261817 C16.5149232,9.53483465 15.5373758,10.0066618 14.5140978,10.0018238 L12.7000932,10.0018238 C12.1991696,10.0018238 11.7930908,10.4495391 11.7930908,11.0018238 C11.7930908,11.5541086 12.1991696,12.0018238 12.7000932,12.0018238 L14.5140978,12.0018238 C16.0851839,12.0157835 17.5850789,11.2804353 18.6280222,9.98490443 C19.6709655,8.6893736 20.1551734,6.96009469 19.9561117,5.24182382 Z"/>
  </g>
</svg>
