<svg xmlns="http://www.w3.org/2000/svg" width="10" height="10" viewBox="0 0 10 10">
  <path fill="#9BA3AE" d="M252.370354,16.9933381 L255.726889,20.344225 C256.094161,20.7197654 256.09056,21.3203575 255.71881,21.6914813 C255.347061,22.062605 254.745456,22.0662004 254.369283,21.6995465 L251.013303,18.3508769 L247.654547,21.7017638 C247.414018,21.9533452 247.055847,22.0551062 246.718671,21.9676588 C246.381494,21.8802114 246.118227,21.6172797 246.03077,21.2806345 C245.943313,20.9439894 246.045392,20.5864637 246.297496,20.3464423 L249.65181,16.9933381 L246.295275,13.6424511 C246.049299,13.4007472 245.952118,13.045884 246.040703,12.712867 C246.129289,12.3798499 246.390022,12.1198746 246.723708,12.0318469 C247.057395,11.9438192 247.412737,12.0412719 247.654547,12.2871296 L251.013303,15.6385709 L254.369838,12.2854667 C254.746886,11.9246261 255.343644,11.9306736 255.713276,12.299081 C256.082908,12.6674883 256.089942,13.2632314 255.72911,13.6402339 L252.370354,16.9933381 Z" transform="translate(-246 -12)"/>
</svg>
