<svg xmlns="http://www.w3.org/2000/svg" width="16" height="16" viewBox="0 0 16 16">
  <path fill="#9BA3AE" d="M170.277415,0.170088317 C171.413116,-0.0561559054 172.58581,-0.0567005417 173.721743,0.168488663 C173.875032,1.12975445 174.48089,1.97234109 175.367712,2.45759465 C176.253836,2.94452803 177.325221,3.02137165 178.278257,2.6663496 C179.051386,3.48862063 179.63702,4.45399423 179.998316,5.50173769 C179.199015,6.1086403 178.734178,7.02833138 178.735424,8.00039845 C178.735424,9.01138027 179.228794,9.91278574 180,10.4990592 C179.636566,11.5459355 179.050206,12.5105446 178.277415,13.3328476 C177.324623,12.9780841 176.253613,13.054923 175.367712,13.5416026 C174.481631,14.0266976 173.876165,14.8685827 173.722585,15.8291089 C172.587,16.0558807 171.414306,16.05697 170.278257,15.8323082 C170.125689,14.8701587 169.519741,14.0265624 168.632288,13.5408028 C167.746033,13.054132 166.674653,12.9775832 165.721743,13.3328476 C164.948514,12.5103416 164.362875,11.5446869 164.001684,10.4966597 C164.800523,9.89010706 165.26531,8.97110492 165.264576,7.99959862 C165.265413,7.02726147 164.799932,6.10752222 164,5.50093786 C164.363434,4.45406158 164.949794,3.4894525 165.722585,2.66714942 C166.675377,3.02191302 167.746387,2.94507403 168.632288,2.45839448 C169.518369,1.97329945 170.123835,1.13141438 170.277415,0.170888145 L170.277415,0.170088317 Z M172,10.5263158 C173.394952,10.5263158 174.525784,9.39524568 174.525784,8 C174.525784,6.60475432 173.394952,5.47368421 172,5.47368421 C170.605048,5.47368421 169.474216,6.60475432 169.474216,8 C169.474216,9.39524568 170.605048,10.5263158 172,10.5263158 Z" transform="translate(-164)"/>
</svg>
