<?xml version="1.0" encoding="UTF-8"?>
<svg width="16px" height="17px" viewBox="0 0 16 17" version="1.1" xmlns="http://www.w3.org/2000/svg" xmlns:xlink="http://www.w3.org/1999/xlink">
    <!-- Generator: Sketch 64 (93537) - https://sketch.com -->
    <title>Path</title>
    <desc>Created with Sketch.</desc>
    <g id="Main" stroke="none" stroke-width="1" fill="none" fill-rule="evenodd">
        <g id="Wallet---Scope-into-Brand---Scope-Card-(Pending-Conf)" transform="translate(-1423.000000, -483.000000)" fill="#FDB455" fill-rule="nonzero">
            <path d="M1431,499.5 C1429.16667,499.5 1427.33333,498.866667 1425.93333,497.666667 C1425.63333,497.433333 1425.6,497 1425.83333,496.733333 C1426.06667,496.433333 1426.5,496.4 1426.76667,496.633333 C1427.96667,497.633333 1429.46667,498.166667 1431,498.166667 C1434.66667,498.166667 1437.66667,495.166667 1437.66667,491.5 C1437.66667,487.833333 1434.66667,484.833333 1431,484.833333 C1427.33333,484.833333 1424.33333,487.833333 1424.33333,491.5 C1424.33333,492.466667 1424.53333,493.366667 1424.9,494.233333 C1425.06667,494.566667 1424.9,494.966667 1424.56667,495.1 C1424.23333,495.266667 1423.83333,495.1 1423.7,494.766667 C1423.23333,493.733333 1423,492.633333 1423,491.5 C1423,487.1 1426.6,483.5 1431,483.5 C1435.4,483.5 1439,487.1 1439,491.5 C1439,495.9 1435.4,499.5 1431,499.5 Z" id="Path"></path>
        </g>
    </g>
</svg>