<?xml version="1.0" encoding="UTF-8"?>
<svg width="16px" height="17px" viewBox="0 0 16 17" version="1.1" xmlns="http://www.w3.org/2000/svg" xmlns:xlink="http://www.w3.org/1999/xlink">
    <!-- Generator: Sketch 64 (93537) - https://sketch.com -->
    <title>Path</title>
    <desc>Created with Sketch.</desc>
    <g id="Main" stroke="none" stroke-width="1" fill="none" fill-rule="evenodd">
        <g id="Shop---Scope-Brand---Preview-Purchase-(Discount)---Awaiting-Payment" transform="translate(-1434.000000, -433.000000)" fill="#4F6EF7" fill-rule="nonzero">
            <g id="app" transform="translate(1370.000000, 110.000000)">
                <g id="Awaiting-Payment" transform="translate(14.000000, 302.000000)">
                    <g id="Group-3" transform="translate(50.000000, 18.000000)">
                        <path d="M8,19.5 C6.16666667,19.5 4.33333333,18.8666667 2.93333333,17.6666667 C2.63333333,17.4333333 2.6,17 2.83333333,16.7333333 C3.06666667,16.4333333 3.5,16.4 3.76666667,16.6333333 C4.96666667,17.6333333 6.46666667,18.1666667 8,18.1666667 C11.6666667,18.1666667 14.6666667,15.1666667 14.6666667,11.5 C14.6666667,7.83333333 11.6666667,4.83333333 8,4.83333333 C4.33333333,4.83333333 1.33333333,7.83333333 1.33333333,11.5 C1.33333333,12.4666667 1.53333333,13.3666667 1.9,14.2333333 C2.06666667,14.5666667 1.9,14.9666667 1.56666667,15.1 C1.23333333,15.2666667 0.833333333,15.1 0.7,14.7666667 C0.233333333,13.7333333 0,12.6333333 0,11.5 C0,7.1 3.6,3.5 8,3.5 C12.4,3.5 16,7.1 16,11.5 C16,15.9 12.4,19.5 8,19.5 Z" id="Path"></path>
                    </g>
                </g>
            </g>
        </g>
    </g>
</svg>